<?xml version="1.0" encoding="iso-8859-1"?>
<!-- Uploaded to: SVG Repo, www.svgrepo.com, Generator: SVG Repo Mixer Tools -->
<svg version="1.1" id="Layer_1" xmlns="http://www.w3.org/2000/svg" xmlns:xlink="http://www.w3.org/1999/xlink" 
	 viewBox="0 0 507.914 507.914" xml:space="preserve">
<path style="fill:#FFFFFF;" d="M110.006,46.1v415.7c94.1,23.9,193.9,23.9,288.1,0V46.1C303.906,22.2,204.106,22.2,110.006,46.1z"/>
<rect x="140.006" y="121.4" style="fill:#56ACE0;" width="228" height="140.2"/>
<g>
	<path style="fill:#194F82;" d="M415.906,21.6c-105.5-28.8-218.3-28.8-323.8,0c-6.1,1.7-10.4,7.3-10.4,13.6v437.4
		c0,6.4,4.3,11.9,10.4,13.6c108,28.5,215.9,29.4,323.7,0c6.1-1.7,10.4-7.3,10.4-13.6V35.3C426.306,28.9,422.006,23.3,415.906,21.6z
		 M398.006,461.8c-94.1,23.9-193.9,23.9-288.1,0V46.1c94.1-23.9,193.9-23.9,288.1,0V461.8z"/>
	<path style="fill:#194F82;" d="M213.506,75.2c0,7.8,6.3,14.1,14.1,14.1h52.8c7.8,0,14.1-6.3,14.1-14.1s-6.3-14.1-14.1-14.1h-52.8
		C219.806,61.1,213.506,67.4,213.506,75.2z"/>
	<path style="fill:#194F82;" d="M184.606,297h-32.3c-7.8,0-14.1,6.3-14.1,14.1s6.3,14.1,14.1,14.1h32.3c7.8,0,14.1-6.3,14.1-14.1
		S192.406,297,184.606,297z"/>
	<path style="fill:#194F82;" d="M270.106,297h-32.3c-7.8,0-14.1,6.3-14.1,14.1s6.3,14.1,14.1,14.1h32.3c7.8,0,14.1-6.3,14.1-14.1
		S277.906,297,270.106,297z"/>
	<path style="fill:#194F82;" d="M355.706,297h-32.3c-7.8,0-14.1,6.3-14.1,14.1s6.3,14.1,14.1,14.1h32.3c7.8,0,14.1-6.3,14.1-14.1
		S363.506,297,355.706,297z"/>
	<path style="fill:#194F82;" d="M184.606,356.3h-32.3c-7.8,0-14.1,6.3-14.1,14.1c0,7.8,6.3,14.1,14.1,14.1h32.3
		c7.8,0,14.1-6.3,14.1-14.1C198.706,362.6,192.406,356.3,184.606,356.3z"/>
	<path style="fill:#194F82;" d="M270.106,356.3h-32.3c-7.8,0-14.1,6.3-14.1,14.1c0,7.8,6.3,14.1,14.1,14.1h32.3
		c7.8,0,14.1-6.3,14.1-14.1C284.306,362.6,277.906,356.3,270.106,356.3z"/>
	<path style="fill:#194F82;" d="M355.706,356.3h-32.3c-7.8,0-14.1,6.3-14.1,14.1c0,7.8,6.3,14.1,14.1,14.1h32.3
		c7.8,0,14.1-6.3,14.1-14.1C369.806,362.6,363.506,356.3,355.706,356.3z"/>
	<path style="fill:#194F82;" d="M184.606,415.6h-32.3c-7.8,0-14.1,6.3-14.1,14.1c0,7.8,6.3,14.1,14.1,14.1h32.3
		c7.8,0,14.1-6.3,14.1-14.1C198.706,421.9,192.406,415.6,184.606,415.6z"/>
	<path style="fill:#194F82;" d="M270.106,415.6h-32.3c-7.8,0-14.1,6.3-14.1,14.1c0,7.8,6.3,14.1,14.1,14.1h32.3
		c7.8,0,14.1-6.3,14.1-14.1C284.306,421.9,277.906,415.6,270.106,415.6z"/>
	<path style="fill:#194F82;" d="M355.706,415.6h-32.3c-7.8,0-14.1,6.3-14.1,14.1c0,7.8,6.3,14.1,14.1,14.1h32.3
		c7.8,0,14.1-6.3,14.1-14.1C369.806,421.9,363.506,415.6,355.706,415.6z"/>
</g>
</svg>